<svg xmlns="http://www.w3.org/2000/svg" viewBox="0 0 234 188.73"><defs><style>.cls-1{fill:#e51e2a;}.cls-1,.cls-2{fill-rule:evenodd;}.cls-2,.cls-5{fill:#134c92;}.cls-3{fill:#2b2123;}.cls-4{fill:#2767a6;}</style></defs><title>Recurso 5</title><g id="Capa_2" data-name="Capa 2"><g id="Layer_1" data-name="Layer 1"><path class="cls-1" d="M162.39,22.24C149.45,6.86,132.81-.81,112.44.07c-8.39.36-15.57,3.34-21.09,9.46C82.84,19,83,28.09,90,39.1c4.42,7,11.2,11.1,18.36,14.64,7.47,3.68,15.08,7.08,22.54,10.79a37.86,37.86,0,0,1,14.4,11.68c1,1.43,1.92,2.94,3.31,5.1.42-1.61-1.53-18.72-7.55-24.68-5.53-5.47-12.59-8.5-19.53-11.7-7.44-3.44-15.36-6.17-21.16-12.38-5-5.33-6.89-12.72-2.34-18.29a18.16,18.16,0,0,1,6.53-4.87c5.72-2.51,11.82-2.15,17.83-1.21,21.32,3.33,36.12,15.24,43.05,35.45,5.53,16.11,3.17,32-6.77,46.2-5.17,7.4-18.19,22.78-18.68,24.14,2.59-.86,4.61-1.13,6.15-2.13a70.84,70.84,0,0,0,10-7.43C169.25,92,176,76.85,175.7,58.61A56.41,56.41,0,0,0,162.39,22.24Z"/><path class="cls-2" d="M136.71,76c-7.93-7.33-18-11.11-27.58-15.54-8.22-3.8-16.35-7.64-22.32-14.79-.79-1-1.56-1.91-2.34-2.86-.32,0,3.7,18.78,10.65,22.9C102.35,70,110,73.6,117.51,77.42c5.22,2.65,10.63,5.06,14.44,9.72,4.45,5.43,7.46,14,.71,20.65-3.29,3.25-7.55,4.6-11.84,5a52.86,52.86,0,0,1-34.54-8.73C72.17,94.85,64.85,81.32,63.11,64.54a49.76,49.76,0,0,1,8.09-33.1c2.86-4.41,7.13-7.89,10.39-12.08,2.57-3.31,4.58-7.06,6.84-10.61-.27-.23-6.11,2-8.44,3.73a57.13,57.13,0,0,0-21.2,30.78c-4.86,17.28-2.56,33.86,7.53,48.9a59.44,59.44,0,0,0,38.72,26c12.83,2.59,25.17,1.7,34.93-8.66a20.3,20.3,0,0,0,5.89-14.16C145.93,87.35,142.25,81.18,136.71,76Z"/><path class="cls-3" d="M0,159.49l4.35-5.19a14.55,14.55,0,0,0,9.15,3.38c2.09,0,3.22-.72,3.22-1.93v-.08c0-1.17-.92-1.82-4.75-2.7C6,151.6,1.33,149.9,1.33,144.1V144c0-5.24,4.15-9,10.92-9a17.73,17.73,0,0,1,11.6,3.75L20,144.26a14.18,14.18,0,0,0-7.9-2.78c-1.9,0-2.82.81-2.82,1.81v.09c0,1.29,1,1.85,4.87,2.74,6.49,1.41,10.52,3.5,10.52,8.78V155c0,5.76-4.55,9.19-11.4,9.19A19.68,19.68,0,0,1,0,159.49Z"/><path class="cls-3" d="M27.44,149.66v-.08c0-8.1,6.53-14.67,15.23-14.67s15.15,6.49,15.15,14.59v.08c0,8.1-6.53,14.67-15.23,14.67S27.44,157.76,27.44,149.66Zm22.4,0v-.08A7.32,7.32,0,0,0,42.59,142c-4.27,0-7.13,3.46-7.13,7.53v.08a7.32,7.32,0,0,0,7.21,7.62C47,157.2,49.84,153.73,49.84,149.66Z"/><path class="cls-3" d="M61.89,135.48h7.82v21.35H83.37v6.85H61.89Z"/><path class="cls-3" d="M86.87,135.48h7.86v28.2H86.87Z"/><path class="cls-3" d="M99.89,135.48h10.88c10.07,0,15.91,5.8,15.91,13.94v.08c0,8.14-5.92,14.18-16.08,14.18H99.89Zm11,21.27c4.67,0,7.77-2.57,7.77-7.13v-.08c0-4.51-3.1-7.13-7.77-7.13H107.7v14.34Z"/><path class="cls-3" d="M138.45,135.28H146l12,28.4h-8.38l-2.06-5H136.67l-2,5h-8.22Zm6.85,17.28-3.15-8-3.18,8Z"/><path class="cls-3" d="M160.73,135.48h13.34c4.31,0,7.29,1.13,9.18,3.06a8.72,8.72,0,0,1,2.5,6.57v.08a8.91,8.91,0,0,1-5.8,8.66l6.73,9.83h-9L172,155.14h-3.42v8.54h-7.82Zm13,13.54c2.66,0,4.19-1.29,4.19-3.35v-.08c0-2.21-1.61-3.34-4.23-3.34h-5.11V149Z"/><path class="cls-3" d="M189.86,135.48h7.86v28.2h-7.86Z"/><path class="cls-3" d="M212.63,135.28h7.53l12,28.4h-8.38l-2.06-5H210.85l-2,5h-8.22Zm6.85,17.28-3.15-8-3.18,8Z"/><path class="cls-4" d="M65.06,179.16H63.62V176.3h1.44v-.78a4,4,0,0,1,1-3,3.81,3.81,0,0,1,2.81-1,7.86,7.86,0,0,1,2.47.34v2.88a4.44,4.44,0,0,0-1.58-.29c-.8,0-1.26.41-1.26,1.32v.48h2.82v2.84H68.54v9.29H65.06Z"/><path class="cls-4" d="M73.12,184.13v-7.94h3.47V183c0,1.65.78,2.49,2.11,2.49s2.17-.84,2.17-2.49v-6.84h3.48v12.26H80.87v-1.74a4.34,4.34,0,0,1-3.59,2C74.65,188.68,73.12,186.94,73.12,184.13Z"/><path class="cls-4" d="M87.46,176.19h3.48v1.74a4.34,4.34,0,0,1,3.59-2c2.63,0,4.16,1.74,4.16,4.55v7.94H95.22v-6.84c0-1.65-.78-2.49-2.11-2.49s-2.17.84-2.17,2.49v6.84H87.46Z"/><path class="cls-4" d="M101.12,182.39v0a6.1,6.1,0,0,1,6.06-6.38c4.1,0,6,3.18,6,6.66,0,.27,0,.59,0,.91h-8.54a2.85,2.85,0,0,0,3,2.4,4,4,0,0,0,3-1.25l2,1.76a6.48,6.48,0,0,1-11.42-4.05Zm8.65-1c-.21-1.56-1.12-2.61-2.59-2.61s-2.38,1-2.65,2.61Z"/><path class="cls-4" d="M115.74,176.19h3.47v2.47a3.8,3.8,0,0,1,3.92-2.7v3.64h-.19c-2.31,0-3.73,1.39-3.73,4.32v4.53h-3.47Z"/><path class="cls-4" d="M124,184.93v-.05c0-2.67,2-3.91,4.94-3.91a9,9,0,0,1,3,.5v-.2c0-1.44-.9-2.25-2.64-2.25a9.05,9.05,0,0,0-3.38.67l-.87-2.66a10.9,10.9,0,0,1,4.76-1,5.65,5.65,0,0,1,4.14,1.37,5.39,5.39,0,0,1,1.33,3.92v7.11h-3.37v-1.33a4.69,4.69,0,0,1-3.7,1.56C125.89,188.68,124,187.35,124,184.93Zm8-.8v-.62a5.28,5.28,0,0,0-2.22-.46c-1.49,0-2.4.6-2.4,1.7v0c0,.94.78,1.49,1.9,1.49C130.88,186.28,132,185.39,132,184.13Z"/><path class="cls-4" d="M138.43,171.75h3.48v16.7h-3.48Z"/><path class="cls-4" d="M144.59,182.39v0a6.1,6.1,0,0,1,6.06-6.38c4.09,0,6,3.18,6,6.66,0,.27,0,.59-.05.91H148a2.84,2.84,0,0,0,3,2.4,4,4,0,0,0,3-1.25l2,1.76a6.47,6.47,0,0,1-11.41-4.05Zm8.64-1a2.62,2.62,0,0,0-2.58-2.61c-1.44,0-2.38,1-2.65,2.61Z"/><path class="cls-4" d="M158.24,186.83l1.49-2.29A6.93,6.93,0,0,0,163.6,186c1,0,1.46-.36,1.46-.91V185c0-.75-1.19-1-2.54-1.42-1.71-.5-3.66-1.3-3.66-3.68v-.05c0-2.49,2-3.89,4.49-3.89a8.51,8.51,0,0,1,4.57,1.42l-1.33,2.41a7.25,7.25,0,0,0-3.31-1.15c-.85,0-1.28.37-1.28.85v0c0,.69,1.16,1,2.49,1.47,1.72.57,3.71,1.39,3.71,3.64v0c0,2.72-2,4-4.69,4A8.62,8.62,0,0,1,158.24,186.83Z"/><rect class="cls-5" x="1.29" y="181.07" width="55.34" height="1.52"/><rect class="cls-5" x="178.66" y="181.07" width="55.34" height="1.52"/></g></g></svg>