<svg width="173" height="48" viewBox="0 0 173 48" fill="none" xmlns="http://www.w3.org/2000/svg">
<path d="M46.3533 23V22.517L48.4693 22.172V5.428L46.3533 5.106V4.6H60.1993V9.867H59.5783L57.8073 5.175H50.9993V13.455H53.9893L55.3463 10.12H55.9443V17.388H55.3463L53.9663 14.007H50.9993V22.448H58.2213L60.1073 17.388H60.7053V23H46.3533ZM66.9085 23V22.517L69.0245 22.172V5.175H65.2295L63.4815 9.729H62.8145V4.6H77.7875V9.729H77.0975L75.3725 5.175H71.5545V22.172L73.6705 22.517V23H66.9085ZM79.4939 23V22.517L81.6099 22.172V5.428L79.4939 5.106V4.6H93.3399V9.867H92.7189L90.9479 5.175H84.1399V13.455H87.1299L88.4869 10.12H89.0849V17.388H88.4869L87.1069 14.007H84.1399V22.448H91.3619L93.2479 17.388H93.8459V23H79.4939ZM109.663 23.23C108.804 23.23 108.16 23.023 107.731 22.609C107.302 22.195 107.01 21.4897 106.857 20.493L106.42 17.411C106.267 16.3683 105.906 15.5557 105.339 14.973C104.787 14.375 103.921 14.076 102.74 14.076H100.946V22.172L103.062 22.517V23H96.3001V22.517L98.4161 22.172V5.428L96.3001 5.106V4.6H102.74C105.239 4.6 107.049 4.991 108.168 5.773C109.287 6.555 109.847 7.74333 109.847 9.338C109.847 11.9753 108.252 13.501 105.063 13.915V14.053C106.244 14.2217 107.187 14.6433 107.892 15.318C108.613 15.9927 109.065 16.8897 109.249 18.009L109.548 19.987C109.671 20.8457 109.809 21.4283 109.962 21.735C110.131 22.0417 110.384 22.195 110.721 22.195C110.951 22.195 111.196 22.126 111.457 21.988C111.718 21.8347 111.963 21.643 112.193 21.413L112.584 21.827C112.139 22.333 111.679 22.6933 111.204 22.908C110.729 23.1227 110.215 23.23 109.663 23.23ZM103.522 13.524C104.641 13.524 105.508 13.1867 106.121 12.512C106.75 11.822 107.064 10.81 107.064 9.476V8.993C107.064 6.44767 105.623 5.175 102.74 5.175H100.946V13.524H103.522ZM113.31 23V22.517L115.449 21.597V6.003L113.31 5.106V4.6H117.588L127.501 18.492V6.003L125.362 5.106V4.6H130.261V5.106L128.076 6.003V23H127.501L116.024 6.877V21.597L118.232 22.517V23H113.31ZM132.203 23V22.517L134.319 22.172V5.428L132.203 5.106V4.6H138.965V5.106L136.849 5.428V22.172L138.965 22.517V23H132.203ZM144.785 23V22.517L146.901 22.172V5.175H143.106L141.358 9.729H140.691V4.6H155.664V9.729H154.974L153.249 5.175H149.431V22.172L151.547 22.517V23H144.785ZM160.959 23V22.517L163.098 22.172V15.18L157.509 5.428L155.692 5.106V4.6H162.615V5.106L160.476 5.428L165.306 13.777L169.745 6.21L166.985 5.106V4.6H172.137V5.106L170.366 6.233L165.582 14.421V22.172L167.721 22.517V23H160.959Z" fill="white"/>
<path d="M52.929 32.6855V33.7125H48.4505V36.969H52.279V37.996H48.4505V42H47.1895V32.6855H52.929ZM56.5667 35.4155V39.6145C56.5667 40.1128 56.6793 40.4985 56.9047 40.7715C57.1343 41.0445 57.4832 41.181 57.9512 41.181C58.2892 41.181 58.6077 41.1008 58.9067 40.9405C59.2057 40.7802 59.4808 40.557 59.7322 40.271V35.4155H60.8892V42H60.2002C60.0355 42 59.9315 41.9198 59.8882 41.7595L59.7972 41.051C59.5112 41.3673 59.1905 41.623 58.8352 41.818C58.4798 42.0087 58.0725 42.104 57.6132 42.104C57.2535 42.104 56.935 42.0455 56.6577 41.9285C56.3847 41.8072 56.155 41.6382 55.9687 41.4215C55.7823 41.2048 55.6415 40.9427 55.5462 40.635C55.4552 40.3273 55.4097 39.9872 55.4097 39.6145V35.4155H56.5667ZM64.4137 42V35.4155H65.1092C65.2739 35.4155 65.3757 35.4957 65.4147 35.656L65.5057 36.371C65.7917 36.0547 66.1124 35.799 66.4677 35.604C66.823 35.409 67.2325 35.3115 67.6962 35.3115C68.0559 35.3115 68.3722 35.3722 68.6452 35.4935C68.9225 35.6105 69.1522 35.7795 69.3342 36.0005C69.5205 36.2172 69.6614 36.4793 69.7567 36.787C69.852 37.0947 69.8997 37.4348 69.8997 37.8075V42H68.7362V37.8075C68.7362 37.3092 68.6214 36.9235 68.3917 36.6505C68.1664 36.3732 67.8219 36.2345 67.3582 36.2345C67.0115 36.2345 66.6887 36.3168 66.3897 36.4815C66.095 36.6462 65.8242 36.8693 65.5772 37.151V42H64.4137ZM76.0502 35.3115C76.4445 35.3115 76.8085 35.3787 77.1422 35.513C77.4802 35.643 77.7705 35.8337 78.0132 36.085C78.2602 36.332 78.453 36.6397 78.5917 37.008C78.7304 37.372 78.7997 37.788 78.7997 38.256C78.7997 38.438 78.7802 38.5593 78.7412 38.62C78.7022 38.6807 78.6285 38.711 78.5202 38.711H74.1197C74.1284 39.127 74.1847 39.4888 74.2887 39.7965C74.3927 40.1042 74.5357 40.362 74.7177 40.57C74.8997 40.7737 75.1164 40.9275 75.3677 41.0315C75.619 41.1312 75.9007 41.181 76.2127 41.181C76.503 41.181 76.7522 41.1485 76.9602 41.0835C77.1725 41.0142 77.3545 40.9405 77.5062 40.8625C77.6579 40.7845 77.7835 40.713 77.8832 40.648C77.9872 40.5787 78.076 40.544 78.1497 40.544C78.245 40.544 78.3187 40.5808 78.3707 40.6545L78.6957 41.077C78.5527 41.2503 78.3815 41.402 78.1822 41.532C77.9829 41.6577 77.7684 41.7617 77.5387 41.844C77.3134 41.9263 77.0794 41.987 76.8367 42.026C76.594 42.0693 76.3535 42.091 76.1152 42.091C75.6602 42.091 75.2399 42.0152 74.8542 41.8635C74.4729 41.7075 74.1414 41.4822 73.8597 41.1875C73.5824 40.8885 73.3657 40.5202 73.2097 40.0825C73.0537 39.6448 72.9757 39.1422 72.9757 38.5745C72.9757 38.1152 73.045 37.6862 73.1837 37.2875C73.3267 36.8888 73.5304 36.5443 73.7947 36.254C74.059 35.9593 74.3819 35.7297 74.7632 35.565C75.1445 35.396 75.5735 35.3115 76.0502 35.3115ZM76.0762 36.163C75.5172 36.163 75.0774 36.3255 74.7567 36.6505C74.436 36.9712 74.2367 37.4175 74.1587 37.9895H77.7597C77.7597 37.7208 77.7207 37.476 77.6427 37.255C77.569 37.0297 77.4585 36.8368 77.3112 36.6765C77.1682 36.5118 76.9927 36.3862 76.7847 36.2995C76.5767 36.2085 76.3405 36.163 76.0762 36.163ZM81.9109 42V35.4155H82.5739C82.6995 35.4155 82.7862 35.4393 82.8339 35.487C82.8815 35.5347 82.914 35.617 82.9314 35.734L83.0029 36.735C83.2109 36.2843 83.4665 35.9333 83.7699 35.682C84.0775 35.4263 84.4502 35.2985 84.8879 35.2985C85.0265 35.2985 85.1587 35.3137 85.2844 35.344C85.4144 35.3743 85.5292 35.422 85.6289 35.487L85.5444 36.3515C85.5184 36.4598 85.4534 36.514 85.3494 36.514C85.2887 36.514 85.1999 36.501 85.0829 36.475C84.9659 36.449 84.8337 36.436 84.6864 36.436C84.4784 36.436 84.292 36.4685 84.1274 36.5335C83.9627 36.5942 83.8154 36.6852 83.6854 36.8065C83.5597 36.9235 83.447 37.0687 83.3474 37.242C83.2477 37.4153 83.1567 37.6147 83.0744 37.84V42H81.9109ZM92.4207 42C92.308 42 92.2213 41.9827 92.1607 41.948C92.1 41.909 92.0523 41.8353 92.0177 41.727L91.8877 41.1095C91.7143 41.2655 91.5432 41.4063 91.3742 41.532C91.2095 41.6533 91.0362 41.7573 90.8542 41.844C90.6765 41.9263 90.4837 41.9892 90.2757 42.0325C90.072 42.0802 89.8445 42.104 89.5932 42.104C89.3375 42.104 89.097 42.0693 88.8717 42C88.6463 41.9263 88.4492 41.818 88.2802 41.675C88.1155 41.532 87.9833 41.3522 87.8837 41.1355C87.7883 40.9145 87.7407 40.6545 87.7407 40.3555C87.7407 40.0955 87.8122 39.8463 87.9552 39.608C88.0982 39.3653 88.33 39.1508 88.6507 38.9645C88.9713 38.7782 89.3895 38.6265 89.9052 38.5095C90.4208 38.3882 91.0535 38.3188 91.8032 38.3015V37.788C91.8032 37.2767 91.6927 36.891 91.4717 36.631C91.2507 36.3667 90.9278 36.2345 90.5032 36.2345C90.2172 36.2345 89.9767 36.2713 89.7817 36.345C89.591 36.4143 89.4242 36.4945 89.2812 36.5855C89.1425 36.6722 89.0212 36.7523 88.9172 36.826C88.8175 36.8953 88.7178 36.93 88.6182 36.93C88.5402 36.93 88.473 36.9105 88.4167 36.8715C88.3603 36.8282 88.3127 36.7762 88.2737 36.7155L88.0657 36.345C88.4297 35.994 88.8218 35.7318 89.2422 35.5585C89.6625 35.3852 90.1283 35.2985 90.6397 35.2985C91.008 35.2985 91.3352 35.3592 91.6212 35.4805C91.9072 35.6018 92.1477 35.7708 92.3427 35.9875C92.5377 36.2042 92.685 36.4663 92.7847 36.774C92.8843 37.0817 92.9342 37.4197 92.9342 37.788V42H92.4207ZM89.9377 41.2915C90.1413 41.2915 90.3277 41.272 90.4967 41.233C90.6657 41.1897 90.8238 41.1312 90.9712 41.0575C91.1228 40.9795 91.2658 40.8863 91.4002 40.778C91.5388 40.6653 91.6732 40.5397 91.8032 40.401V39.036C91.2702 39.0533 90.8152 39.0967 90.4382 39.166C90.0655 39.231 89.76 39.3177 89.5217 39.426C89.2877 39.5343 89.1165 39.6622 89.0082 39.8095C88.9042 39.9568 88.8522 40.1215 88.8522 40.3035C88.8522 40.4768 88.8803 40.6263 88.9367 40.752C88.993 40.8777 89.0688 40.9817 89.1642 41.064C89.2638 41.142 89.3787 41.2005 89.5087 41.2395C89.643 41.2742 89.786 41.2915 89.9377 41.2915ZM97.5826 32.4255V42H96.4256V32.4255H97.5826ZM111.203 34.1415C111.164 34.2065 111.12 34.2563 111.073 34.291C111.029 34.3213 110.975 34.3365 110.91 34.3365C110.836 34.3365 110.75 34.2997 110.65 34.226C110.55 34.1523 110.425 34.0722 110.273 33.9855C110.126 33.8945 109.946 33.8122 109.734 33.7385C109.526 33.6648 109.272 33.628 108.973 33.628C108.691 33.628 108.442 33.667 108.226 33.745C108.013 33.8187 107.833 33.9205 107.686 34.0505C107.543 34.1805 107.435 34.3343 107.361 34.512C107.287 34.6853 107.251 34.8738 107.251 35.0775C107.251 35.3375 107.313 35.5542 107.439 35.7275C107.569 35.8965 107.738 36.0417 107.946 36.163C108.158 36.2843 108.397 36.3905 108.661 36.4815C108.93 36.5682 109.203 36.6592 109.48 36.7545C109.762 36.8498 110.035 36.9582 110.299 37.0795C110.568 37.1965 110.806 37.346 111.014 37.528C111.226 37.71 111.395 37.9332 111.521 38.1975C111.651 38.4618 111.716 38.7868 111.716 39.1725C111.716 39.5798 111.647 39.9633 111.508 40.323C111.369 40.6783 111.166 40.9882 110.897 41.2525C110.633 41.5168 110.306 41.7248 109.916 41.8765C109.53 42.0282 109.09 42.104 108.596 42.104C107.989 42.104 107.439 41.9957 106.945 41.779C106.451 41.558 106.029 41.2612 105.678 40.8885L106.042 40.2905C106.076 40.2428 106.117 40.2038 106.165 40.1735C106.217 40.1388 106.273 40.1215 106.334 40.1215C106.39 40.1215 106.453 40.1453 106.523 40.193C106.596 40.2363 106.679 40.2927 106.77 40.362C106.861 40.4313 106.965 40.5072 107.082 40.5895C107.199 40.6718 107.331 40.7477 107.478 40.817C107.63 40.8863 107.801 40.9448 107.992 40.9925C108.182 41.0358 108.397 41.0575 108.635 41.0575C108.934 41.0575 109.201 41.0163 109.435 40.934C109.669 40.8517 109.866 40.7368 110.026 40.5895C110.191 40.4378 110.316 40.258 110.403 40.05C110.49 39.842 110.533 39.6102 110.533 39.3545C110.533 39.0728 110.468 38.8432 110.338 38.6655C110.212 38.4835 110.046 38.3318 109.838 38.2105C109.63 38.0892 109.391 37.9873 109.123 37.905C108.854 37.8183 108.581 37.7317 108.304 37.645C108.026 37.554 107.753 37.45 107.485 37.333C107.216 37.216 106.978 37.0643 106.77 36.878C106.562 36.6917 106.393 36.4598 106.263 36.1825C106.137 35.9008 106.074 35.5542 106.074 35.1425C106.074 34.8132 106.137 34.4947 106.263 34.187C106.393 33.8793 106.579 33.6063 106.822 33.368C107.069 33.1297 107.37 32.939 107.725 32.796C108.085 32.653 108.496 32.5815 108.96 32.5815C109.48 32.5815 109.952 32.6638 110.377 32.8285C110.806 32.9932 111.183 33.2315 111.508 33.5435L111.203 34.1415ZM117.535 35.3115C117.929 35.3115 118.293 35.3787 118.627 35.513C118.965 35.643 119.255 35.8337 119.498 36.085C119.745 36.332 119.938 36.6397 120.076 37.008C120.215 37.372 120.284 37.788 120.284 38.256C120.284 38.438 120.265 38.5593 120.226 38.62C120.187 38.6807 120.113 38.711 120.005 38.711H115.604C115.613 39.127 115.669 39.4888 115.773 39.7965C115.877 40.1042 116.02 40.362 116.202 40.57C116.384 40.7737 116.601 40.9275 116.852 41.0315C117.104 41.1312 117.385 41.181 117.697 41.181C117.988 41.181 118.237 41.1485 118.445 41.0835C118.657 41.0142 118.839 40.9405 118.991 40.8625C119.143 40.7845 119.268 40.713 119.368 40.648C119.472 40.5787 119.561 40.544 119.634 40.544C119.73 40.544 119.803 40.5808 119.855 40.6545L120.18 41.077C120.037 41.2503 119.866 41.402 119.667 41.532C119.468 41.6577 119.253 41.7617 119.023 41.844C118.798 41.9263 118.564 41.987 118.321 42.026C118.079 42.0693 117.838 42.091 117.6 42.091C117.145 42.091 116.725 42.0152 116.339 41.8635C115.958 41.7075 115.626 41.4822 115.344 41.1875C115.067 40.8885 114.85 40.5202 114.694 40.0825C114.538 39.6448 114.46 39.1422 114.46 38.5745C114.46 38.1152 114.53 37.6862 114.668 37.2875C114.811 36.8888 115.015 36.5443 115.279 36.254C115.544 35.9593 115.867 35.7297 116.248 35.565C116.629 35.396 117.058 35.3115 117.535 35.3115ZM117.561 36.163C117.002 36.163 116.562 36.3255 116.241 36.6505C115.921 36.9712 115.721 37.4175 115.643 37.9895H119.244C119.244 37.7208 119.205 37.476 119.127 37.255C119.054 37.0297 118.943 36.8368 118.796 36.6765C118.653 36.5118 118.477 36.3862 118.269 36.2995C118.061 36.2085 117.825 36.163 117.561 36.163ZM123.396 42V35.4155H124.059C124.184 35.4155 124.271 35.4393 124.319 35.487C124.366 35.5347 124.399 35.617 124.416 35.734L124.488 36.735C124.696 36.2843 124.951 35.9333 125.255 35.682C125.562 35.4263 125.935 35.2985 126.373 35.2985C126.511 35.2985 126.643 35.3137 126.769 35.344C126.899 35.3743 127.014 35.422 127.114 35.487L127.029 36.3515C127.003 36.4598 126.938 36.514 126.834 36.514C126.773 36.514 126.685 36.501 126.568 36.475C126.451 36.449 126.318 36.436 126.171 36.436C125.963 36.436 125.777 36.4685 125.612 36.5335C125.447 36.5942 125.3 36.6852 125.17 36.8065C125.044 36.9235 124.932 37.0687 124.832 37.242C124.732 37.4153 124.641 37.6147 124.559 37.84V42H123.396ZM129.054 35.4155H129.996C130.092 35.4155 130.17 35.4393 130.23 35.487C130.291 35.5347 130.332 35.591 130.354 35.656L132.024 39.894C132.076 40.0543 132.122 40.2103 132.161 40.362C132.2 40.5137 132.237 40.6653 132.271 40.817C132.306 40.6653 132.343 40.5137 132.382 40.362C132.421 40.2103 132.469 40.0543 132.525 39.894L134.215 35.656C134.241 35.5867 134.284 35.5303 134.345 35.487C134.406 35.4393 134.477 35.4155 134.559 35.4155H135.463L132.778 42H131.738L129.054 35.4155ZM139.436 35.4155V42H138.279V35.4155H139.436ZM139.683 33.3485C139.683 33.4612 139.659 33.5673 139.612 33.667C139.568 33.7623 139.508 33.849 139.43 33.927C139.356 34.0007 139.267 34.0592 139.163 34.1025C139.063 34.1458 138.957 34.1675 138.845 34.1675C138.732 34.1675 138.626 34.1458 138.526 34.1025C138.431 34.0592 138.346 34.0007 138.273 33.927C138.199 33.849 138.14 33.7623 138.097 33.667C138.054 33.5673 138.032 33.4612 138.032 33.3485C138.032 33.2358 138.054 33.1297 138.097 33.03C138.14 32.926 138.199 32.8372 138.273 32.7635C138.346 32.6855 138.431 32.6248 138.526 32.5815C138.626 32.5382 138.732 32.5165 138.845 32.5165C138.957 32.5165 139.063 32.5382 139.163 32.5815C139.267 32.6248 139.356 32.6855 139.43 32.7635C139.508 32.8372 139.568 32.926 139.612 33.03C139.659 33.1297 139.683 33.2358 139.683 33.3485ZM147.61 36.5855C147.575 36.6332 147.54 36.67 147.506 36.696C147.471 36.722 147.423 36.735 147.363 36.735C147.298 36.735 147.226 36.709 147.148 36.657C147.07 36.6007 146.973 36.54 146.856 36.475C146.743 36.41 146.602 36.3515 146.433 36.2995C146.268 36.2432 146.065 36.215 145.822 36.215C145.497 36.215 145.211 36.2735 144.964 36.3905C144.717 36.5032 144.509 36.6678 144.34 36.8845C144.175 37.1012 144.05 37.3633 143.963 37.671C143.881 37.9787 143.84 38.3232 143.84 38.7045C143.84 39.1032 143.885 39.4585 143.976 39.7705C144.067 40.0782 144.195 40.3382 144.36 40.5505C144.529 40.7585 144.73 40.9188 144.964 41.0315C145.202 41.1398 145.469 41.194 145.764 41.194C146.045 41.194 146.277 41.1615 146.459 41.0965C146.641 41.0272 146.791 40.9513 146.908 40.869C147.029 40.7867 147.129 40.713 147.207 40.648C147.289 40.5787 147.369 40.544 147.447 40.544C147.542 40.544 147.616 40.5808 147.668 40.6545L147.993 41.077C147.85 41.2547 147.688 41.4063 147.506 41.532C147.324 41.6577 147.126 41.7638 146.914 41.8505C146.706 41.9328 146.487 41.9935 146.258 42.0325C146.028 42.0715 145.794 42.091 145.556 42.091C145.144 42.091 144.76 42.0152 144.405 41.8635C144.054 41.7118 143.749 41.493 143.489 41.207C143.229 40.9167 143.025 40.5613 142.878 40.141C142.73 39.7207 142.657 39.2418 142.657 38.7045C142.657 38.2148 142.724 37.762 142.858 37.346C142.997 36.93 143.196 36.5725 143.456 36.2735C143.72 35.9702 144.043 35.734 144.425 35.565C144.81 35.396 145.252 35.3115 145.751 35.3115C146.214 35.3115 146.622 35.3873 146.973 35.539C147.328 35.6863 147.642 35.8965 147.915 36.1695L147.61 36.5855ZM153.508 35.3115C153.903 35.3115 154.267 35.3787 154.6 35.513C154.938 35.643 155.229 35.8337 155.471 36.085C155.718 36.332 155.911 36.6397 156.05 37.008C156.189 37.372 156.258 37.788 156.258 38.256C156.258 38.438 156.238 38.5593 156.199 38.62C156.16 38.6807 156.087 38.711 155.978 38.711H151.578C151.587 39.127 151.643 39.4888 151.747 39.7965C151.851 40.1042 151.994 40.362 152.176 40.57C152.358 40.7737 152.575 40.9275 152.826 41.0315C153.077 41.1312 153.359 41.181 153.671 41.181C153.961 41.181 154.21 41.1485 154.418 41.0835C154.631 41.0142 154.813 40.9405 154.964 40.8625C155.116 40.7845 155.242 40.713 155.341 40.648C155.445 40.5787 155.534 40.544 155.608 40.544C155.703 40.544 155.777 40.5808 155.829 40.6545L156.154 41.077C156.011 41.2503 155.84 41.402 155.64 41.532C155.441 41.6577 155.227 41.7617 154.997 41.844C154.772 41.9263 154.538 41.987 154.295 42.026C154.052 42.0693 153.812 42.091 153.573 42.091C153.118 42.091 152.698 42.0152 152.312 41.8635C151.931 41.7075 151.6 41.4822 151.318 41.1875C151.041 40.8885 150.824 40.5202 150.668 40.0825C150.512 39.6448 150.434 39.1422 150.434 38.5745C150.434 38.1152 150.503 37.6862 150.642 37.2875C150.785 36.8888 150.989 36.5443 151.253 36.254C151.517 35.9593 151.84 35.7297 152.221 35.565C152.603 35.396 153.032 35.3115 153.508 35.3115ZM153.534 36.163C152.975 36.163 152.536 36.3255 152.215 36.6505C151.894 36.9712 151.695 37.4175 151.617 37.9895H155.218C155.218 37.7208 155.179 37.476 155.101 37.255C155.027 37.0297 154.917 36.8368 154.769 36.6765C154.626 36.5118 154.451 36.3862 154.243 36.2995C154.035 36.2085 153.799 36.163 153.534 36.163ZM163.204 36.501C163.152 36.5963 163.072 36.644 162.964 36.644C162.899 36.644 162.825 36.6202 162.743 36.5725C162.66 36.5248 162.558 36.4728 162.437 36.4165C162.32 36.3558 162.179 36.3017 162.015 36.254C161.85 36.202 161.655 36.176 161.43 36.176C161.235 36.176 161.059 36.202 160.903 36.254C160.747 36.3017 160.613 36.3688 160.5 36.4555C160.392 36.5422 160.307 36.644 160.247 36.761C160.19 36.8737 160.162 36.9972 160.162 37.1315C160.162 37.3005 160.21 37.4413 160.305 37.554C160.405 37.6667 160.535 37.7642 160.695 37.8465C160.855 37.9288 161.037 38.0025 161.241 38.0675C161.445 38.1282 161.653 38.1953 161.865 38.269C162.082 38.3383 162.292 38.4163 162.496 38.503C162.699 38.5897 162.881 38.698 163.042 38.828C163.202 38.958 163.33 39.1183 163.425 39.309C163.525 39.4953 163.575 39.7207 163.575 39.985C163.575 40.2883 163.52 40.57 163.412 40.83C163.304 41.0857 163.143 41.3088 162.931 41.4995C162.719 41.6858 162.459 41.8332 162.151 41.9415C161.843 42.0498 161.488 42.104 161.085 42.104C160.626 42.104 160.21 42.0303 159.837 41.883C159.464 41.7313 159.148 41.5385 158.888 41.3045L159.161 40.8625C159.196 40.8062 159.237 40.7628 159.285 40.7325C159.332 40.7022 159.393 40.687 159.467 40.687C159.545 40.687 159.627 40.7173 159.714 40.778C159.8 40.8387 159.904 40.9058 160.026 40.9795C160.151 41.0532 160.303 41.1203 160.481 41.181C160.658 41.2417 160.879 41.272 161.144 41.272C161.369 41.272 161.566 41.2438 161.735 41.1875C161.904 41.1268 162.045 41.0467 162.158 40.947C162.27 40.8473 162.353 40.7325 162.405 40.6025C162.461 40.4725 162.489 40.3338 162.489 40.1865C162.489 40.0045 162.439 39.855 162.34 39.738C162.244 39.6167 162.116 39.5148 161.956 39.4325C161.796 39.3458 161.612 39.2722 161.404 39.2115C161.2 39.1465 160.99 39.0793 160.773 39.01C160.561 38.9407 160.351 38.8627 160.143 38.776C159.939 38.685 159.757 38.5723 159.597 38.438C159.436 38.3037 159.306 38.139 159.207 37.944C159.111 37.7447 159.064 37.5042 159.064 37.2225C159.064 36.9712 159.116 36.7307 159.22 36.501C159.324 36.267 159.475 36.0633 159.675 35.89C159.874 35.7123 160.119 35.5715 160.409 35.4675C160.699 35.3635 161.031 35.3115 161.404 35.3115C161.837 35.3115 162.225 35.3808 162.567 35.5195C162.914 35.6538 163.213 35.8402 163.464 36.0785L163.204 36.501Z" fill="white"/>
<path d="M40 22.0986C40 31.9853 31.7173 40 21.5 40C11.2827 40 3 31.9853 3 22.0986C3 16.9272 5.26615 12.268 8.88994 9" stroke="white" stroke-width="4.5"/>
<path d="M17.3818 5.91605C23.3923 4.30555 29.5142 7.6629 31.0554 13.4149C32.5966 19.1669 28.9736 25.1354 22.9631 26.7459C19.8192 27.5883 16.6449 27.0715 14.1115 25.5638" stroke="white" stroke-width="4.5"/>
</svg>
