<svg width="173" height="48" viewBox="0 0 173 48" fill="none" xmlns="http://www.w3.org/2000/svg">
<path d="M46.3533 23V22.517L48.4693 22.172V5.428L46.3533 5.106V4.6H60.1993V9.867H59.5783L57.8073 5.175H50.9993V13.455H53.9893L55.3463 10.12H55.9443V17.388H55.3463L53.9663 14.007H50.9993V22.448H58.2213L60.1073 17.388H60.7053V23H46.3533ZM66.9085 23V22.517L69.0245 22.172V5.175H65.2295L63.4815 9.729H62.8145V4.6H77.7875V9.729H77.0975L75.3725 5.175H71.5545V22.172L73.6705 22.517V23H66.9085ZM79.4939 23V22.517L81.6099 22.172V5.428L79.4939 5.106V4.6H93.3399V9.867H92.7189L90.9479 5.175H84.1399V13.455H87.1299L88.4869 10.12H89.0849V17.388H88.4869L87.1069 14.007H84.1399V22.448H91.3619L93.2479 17.388H93.8459V23H79.4939ZM109.663 23.23C108.804 23.23 108.16 23.023 107.731 22.609C107.302 22.195 107.01 21.4897 106.857 20.493L106.42 17.411C106.267 16.3683 105.906 15.5557 105.339 14.973C104.787 14.375 103.921 14.076 102.74 14.076H100.946V22.172L103.062 22.517V23H96.3001V22.517L98.4161 22.172V5.428L96.3001 5.106V4.6H102.74C105.239 4.6 107.049 4.991 108.168 5.773C109.287 6.555 109.847 7.74333 109.847 9.338C109.847 11.9753 108.252 13.501 105.063 13.915V14.053C106.244 14.2217 107.187 14.6433 107.892 15.318C108.613 15.9927 109.065 16.8897 109.249 18.009L109.548 19.987C109.671 20.8457 109.809 21.4283 109.962 21.735C110.131 22.0417 110.384 22.195 110.721 22.195C110.951 22.195 111.196 22.126 111.457 21.988C111.718 21.8347 111.963 21.643 112.193 21.413L112.584 21.827C112.139 22.333 111.679 22.6933 111.204 22.908C110.729 23.1227 110.215 23.23 109.663 23.23ZM103.522 13.524C104.641 13.524 105.508 13.1867 106.121 12.512C106.75 11.822 107.064 10.81 107.064 9.476V8.993C107.064 6.44767 105.623 5.175 102.74 5.175H100.946V13.524H103.522ZM113.31 23V22.517L115.449 21.597V6.003L113.31 5.106V4.6H117.588L127.501 18.492V6.003L125.362 5.106V4.6H130.261V5.106L128.076 6.003V23H127.501L116.024 6.877V21.597L118.232 22.517V23H113.31ZM132.203 23V22.517L134.319 22.172V5.428L132.203 5.106V4.6H138.965V5.106L136.849 5.428V22.172L138.965 22.517V23H132.203ZM144.785 23V22.517L146.901 22.172V5.175H143.106L141.358 9.729H140.691V4.6H155.664V9.729H154.974L153.249 5.175H149.431V22.172L151.547 22.517V23H144.785ZM160.959 23V22.517L163.098 22.172V15.18L157.509 5.428L155.692 5.106V4.6H162.615V5.106L160.476 5.428L165.306 13.777L169.745 6.21L166.985 5.106V4.6H172.137V5.106L170.366 6.233L165.582 14.421V22.172L167.721 22.517V23H160.959Z" fill="#252A2D"/>
<path d="M52.8705 32.6855V33.7125H48.3985V36.969H52.2205V37.996H48.3985V42H47.131V32.6855H52.8705ZM56.6097 35.4155V39.6145C56.6097 40.1128 56.7246 40.4985 56.9542 40.7715C57.1839 41.0445 57.5306 41.181 57.9942 41.181C58.3322 41.181 58.6507 41.1008 58.9497 40.9405C59.2487 40.7802 59.5239 40.557 59.7752 40.271V35.4155H60.9322V42H60.2432C60.0786 42 59.9746 41.9198 59.9312 41.7595L59.8402 41.051C59.5542 41.3673 59.2336 41.623 58.8782 41.818C58.5229 42.0087 58.1156 42.104 57.6562 42.104C57.2966 42.104 56.9781 42.0455 56.7007 41.9285C56.4277 41.8072 56.1981 41.6382 56.0117 41.4215C55.8254 41.2048 55.6846 40.9427 55.5892 40.635C55.4982 40.3273 55.4527 39.9872 55.4527 39.6145V35.4155H56.6097ZM64.5224 42V35.4155H65.2114C65.376 35.4155 65.48 35.4957 65.5234 35.656L65.6144 36.371C65.9004 36.0547 66.2189 35.799 66.5699 35.604C66.9252 35.409 67.3347 35.3115 67.7984 35.3115C68.158 35.3115 68.4744 35.3722 68.7474 35.4935C69.0247 35.6105 69.2544 35.7795 69.4364 36.0005C69.6227 36.2172 69.7635 36.4793 69.8589 36.787C69.9542 37.0947 70.0019 37.4348 70.0019 37.8075V42H68.8449V37.8075C68.8449 37.3092 68.73 36.9235 68.5004 36.6505C68.275 36.3732 67.9284 36.2345 67.4604 36.2345C67.118 36.2345 66.7974 36.3168 66.4984 36.4815C66.2037 36.6462 65.9307 36.8693 65.6794 37.151V42H64.5224ZM76.0425 35.3115C76.4368 35.3115 76.8008 35.3787 77.1345 35.513C77.4682 35.643 77.7563 35.8337 77.999 36.085C78.2417 36.332 78.4302 36.6397 78.5645 37.008C78.7032 37.372 78.7725 37.788 78.7725 38.256C78.7725 38.438 78.753 38.5593 78.714 38.62C78.675 38.6807 78.6013 38.711 78.493 38.711H74.112C74.1207 39.127 74.177 39.4888 74.281 39.7965C74.385 40.1042 74.528 40.362 74.71 40.57C74.892 40.7737 75.1087 40.9275 75.36 41.0315C75.6113 41.1312 75.893 41.181 76.205 41.181C76.4953 41.181 76.7445 41.1485 76.9525 41.0835C77.1648 41.0142 77.3468 40.9405 77.4985 40.8625C77.6502 40.7845 77.7758 40.713 77.8755 40.648C77.9795 40.5787 78.0683 40.544 78.142 40.544C78.2373 40.544 78.311 40.5808 78.363 40.6545L78.688 41.077C78.545 41.2503 78.3738 41.402 78.1745 41.532C77.9752 41.6577 77.7607 41.7617 77.531 41.844C77.3057 41.9263 77.0717 41.987 76.829 42.026C76.5863 42.0693 76.3458 42.091 76.1075 42.091C75.6525 42.091 75.2322 42.0152 74.8465 41.8635C74.4652 41.7075 74.1337 41.4822 73.852 41.1875C73.5747 40.8885 73.358 40.5202 73.202 40.0825C73.046 39.6448 72.968 39.1422 72.968 38.5745C72.968 38.1152 73.0373 37.6862 73.176 37.2875C73.319 36.8888 73.5227 36.5443 73.787 36.254C74.0513 35.9593 74.3742 35.7297 74.7555 35.565C75.1368 35.396 75.5658 35.3115 76.0425 35.3115ZM76.0685 36.163C75.5095 36.163 75.0697 36.3255 74.749 36.6505C74.4283 36.9712 74.229 37.4175 74.151 37.9895H77.7325C77.7325 37.7208 77.6957 37.476 77.622 37.255C77.5483 37.0297 77.44 36.8368 77.297 36.6765C77.154 36.5118 76.9785 36.3862 76.7705 36.2995C76.5668 36.2085 76.3328 36.163 76.0685 36.163ZM81.9434 42V35.4155H82.6064C82.732 35.4155 82.8187 35.4393 82.8664 35.487C82.914 35.5347 82.9465 35.617 82.9639 35.734L83.0419 36.761C83.2672 36.3017 83.5445 35.9442 83.8739 35.6885C84.2075 35.4285 84.5975 35.2985 85.0439 35.2985C85.2259 35.2985 85.3905 35.3202 85.5379 35.3635C85.6852 35.4025 85.8217 35.4588 85.9474 35.5325L85.7979 36.397C85.7675 36.5053 85.7004 36.5595 85.5964 36.5595C85.5357 36.5595 85.4425 36.54 85.3169 36.501C85.1912 36.4577 85.0157 36.436 84.7904 36.436C84.3874 36.436 84.0494 36.553 83.7764 36.787C83.5077 37.021 83.2824 37.3612 83.1004 37.8075V42H81.9434ZM93.4713 42H92.9578C92.8452 42 92.7542 41.9827 92.6848 41.948C92.6155 41.9133 92.57 41.8397 92.5483 41.727L92.4183 41.116C92.245 41.272 92.076 41.4128 91.9113 41.5385C91.7467 41.6598 91.5733 41.7638 91.3913 41.8505C91.2093 41.9328 91.0143 41.9957 90.8063 42.039C90.6027 42.0823 90.3752 42.104 90.1238 42.104C89.8682 42.104 89.6277 42.0693 89.4023 42C89.1813 41.9263 88.9885 41.818 88.8238 41.675C88.6592 41.532 88.527 41.3522 88.4273 41.1355C88.332 40.9145 88.2843 40.6545 88.2843 40.3555C88.2843 40.0955 88.3558 39.8463 88.4988 39.608C88.6418 39.3653 88.8715 39.1508 89.1878 38.9645C89.5085 38.7782 89.9267 38.6265 90.4423 38.5095C90.958 38.3882 91.5885 38.3188 92.3338 38.3015V37.788C92.3338 37.2767 92.2233 36.891 92.0023 36.631C91.7857 36.3667 91.4628 36.2345 91.0338 36.2345C90.7522 36.2345 90.5138 36.2713 90.3188 36.345C90.1282 36.4143 89.9613 36.4945 89.8183 36.5855C89.6797 36.6722 89.5583 36.7523 89.4543 36.826C89.3547 36.8953 89.255 36.93 89.1553 36.93C89.0773 36.93 89.008 36.9105 88.9473 36.8715C88.891 36.8282 88.8455 36.7762 88.8108 36.7155L88.6028 36.345C88.9668 35.994 89.359 35.7318 89.7793 35.5585C90.1997 35.3852 90.6655 35.2985 91.1768 35.2985C91.5452 35.2985 91.8723 35.3592 92.1583 35.4805C92.4443 35.6018 92.6848 35.7708 92.8798 35.9875C93.0748 36.2042 93.2222 36.4663 93.3218 36.774C93.4215 37.0817 93.4713 37.4197 93.4713 37.788V42ZM90.4683 41.2915C90.672 41.2915 90.8583 41.272 91.0273 41.233C91.1963 41.1897 91.3545 41.1312 91.5018 41.0575C91.6535 40.9795 91.7965 40.8863 91.9308 40.778C92.0695 40.6697 92.2038 40.5462 92.3338 40.4075V39.036C91.8008 39.0533 91.348 39.0967 90.9753 39.166C90.6027 39.231 90.2993 39.3177 90.0653 39.426C89.8313 39.5343 89.6602 39.6622 89.5518 39.8095C89.4478 39.9568 89.3958 40.1215 89.3958 40.3035C89.3958 40.4768 89.424 40.6263 89.4803 40.752C89.5367 40.8777 89.6125 40.9817 89.7078 41.064C89.8032 41.142 89.9158 41.2005 90.0458 41.2395C90.1758 41.2742 90.3167 41.2915 90.4683 41.2915ZM98.2012 32.4255V42H97.0442V32.4255H98.2012ZM111.087 34.1415C111.048 34.2065 111.007 34.2563 110.964 34.291C110.92 34.3213 110.864 34.3365 110.795 34.3365C110.721 34.3365 110.634 34.2997 110.535 34.226C110.439 34.1523 110.316 34.0722 110.164 33.9855C110.017 33.8945 109.837 33.8122 109.625 33.7385C109.417 33.6648 109.163 33.628 108.864 33.628C108.582 33.628 108.333 33.667 108.117 33.745C107.9 33.8187 107.718 33.9205 107.571 34.0505C107.428 34.1805 107.319 34.3343 107.246 34.512C107.172 34.6853 107.135 34.8738 107.135 35.0775C107.135 35.3375 107.198 35.5542 107.324 35.7275C107.454 35.8965 107.623 36.0417 107.831 36.163C108.043 36.2843 108.281 36.3905 108.546 36.4815C108.814 36.5682 109.087 36.6592 109.365 36.7545C109.646 36.8498 109.919 36.9582 110.184 37.0795C110.452 37.1965 110.691 37.346 110.899 37.528C111.111 37.71 111.28 37.9332 111.406 38.1975C111.536 38.4618 111.601 38.7868 111.601 39.1725C111.601 39.5798 111.531 39.9633 111.393 40.323C111.254 40.6783 111.05 40.9882 110.782 41.2525C110.517 41.5168 110.19 41.7248 109.8 41.8765C109.414 42.0282 108.975 42.104 108.481 42.104C107.878 42.104 107.328 41.9957 106.83 41.779C106.336 41.558 105.913 41.2612 105.562 40.8885L105.926 40.2905C105.961 40.2428 106.002 40.2038 106.05 40.1735C106.102 40.1388 106.158 40.1215 106.219 40.1215C106.31 40.1215 106.414 40.1713 106.531 40.271C106.648 40.3663 106.793 40.4725 106.966 40.5895C107.144 40.7065 107.356 40.8148 107.603 40.9145C107.854 41.0098 108.16 41.0575 108.52 41.0575C108.819 41.0575 109.085 41.0163 109.319 40.934C109.553 40.8517 109.75 40.7368 109.911 40.5895C110.075 40.4378 110.201 40.258 110.288 40.05C110.374 39.842 110.418 39.6102 110.418 39.3545C110.418 39.0728 110.353 38.8432 110.223 38.6655C110.097 38.4835 109.93 38.3318 109.722 38.2105C109.514 38.0892 109.276 37.9873 109.007 37.905C108.743 37.8183 108.47 37.7317 108.188 37.645C107.911 37.554 107.638 37.45 107.369 37.333C107.105 37.216 106.869 37.0643 106.661 36.878C106.453 36.6917 106.284 36.4598 106.154 36.1825C106.028 35.9008 105.965 35.5542 105.965 35.1425C105.965 34.8132 106.028 34.4947 106.154 34.187C106.284 33.8793 106.47 33.6063 106.713 33.368C106.955 33.1297 107.254 32.939 107.61 32.796C107.969 32.653 108.381 32.5815 108.845 32.5815C109.365 32.5815 109.839 32.6638 110.268 32.8285C110.697 32.9932 111.072 33.2315 111.393 33.5435L111.087 34.1415ZM117.324 35.3115C117.718 35.3115 118.082 35.3787 118.416 35.513C118.75 35.643 119.038 35.8337 119.281 36.085C119.523 36.332 119.712 36.6397 119.846 37.008C119.985 37.372 120.054 37.788 120.054 38.256C120.054 38.438 120.035 38.5593 119.996 38.62C119.957 38.6807 119.883 38.711 119.775 38.711H115.394C115.402 39.127 115.459 39.4888 115.563 39.7965C115.667 40.1042 115.81 40.362 115.992 40.57C116.174 40.7737 116.39 40.9275 116.642 41.0315C116.893 41.1312 117.175 41.181 117.487 41.181C117.777 41.181 118.026 41.1485 118.234 41.0835C118.446 41.0142 118.628 40.9405 118.78 40.8625C118.932 40.7845 119.057 40.713 119.157 40.648C119.261 40.5787 119.35 40.544 119.424 40.544C119.519 40.544 119.593 40.5808 119.645 40.6545L119.97 41.077C119.827 41.2503 119.655 41.402 119.456 41.532C119.257 41.6577 119.042 41.7617 118.813 41.844C118.587 41.9263 118.353 41.987 118.111 42.026C117.868 42.0693 117.627 42.091 117.389 42.091C116.934 42.091 116.514 42.0152 116.128 41.8635C115.747 41.7075 115.415 41.4822 115.134 41.1875C114.856 40.8885 114.64 40.5202 114.484 40.0825C114.328 39.6448 114.25 39.1422 114.25 38.5745C114.25 38.1152 114.319 37.6862 114.458 37.2875C114.601 36.8888 114.804 36.5443 115.069 36.254C115.333 35.9593 115.656 35.7297 116.037 35.565C116.418 35.396 116.847 35.3115 117.324 35.3115ZM117.35 36.163C116.791 36.163 116.351 36.3255 116.031 36.6505C115.71 36.9712 115.511 37.4175 115.433 37.9895H119.014C119.014 37.7208 118.977 37.476 118.904 37.255C118.83 37.0297 118.722 36.8368 118.579 36.6765C118.436 36.5118 118.26 36.3862 118.052 36.2995C117.848 36.2085 117.614 36.163 117.35 36.163ZM123.225 42V35.4155H123.888C124.014 35.4155 124.1 35.4393 124.148 35.487C124.196 35.5347 124.228 35.617 124.245 35.734L124.323 36.761C124.549 36.3017 124.826 35.9442 125.155 35.6885C125.489 35.4285 125.879 35.2985 126.325 35.2985C126.507 35.2985 126.672 35.3202 126.819 35.3635C126.967 35.4025 127.103 35.4588 127.229 35.5325L127.079 36.397C127.049 36.5053 126.982 36.5595 126.878 36.5595C126.817 36.5595 126.724 36.54 126.598 36.501C126.473 36.4577 126.297 36.436 126.072 36.436C125.669 36.436 125.331 36.553 125.058 36.787C124.789 37.021 124.564 37.3612 124.382 37.8075V42H123.225ZM129.326 35.4155H130.275C130.366 35.4155 130.442 35.4393 130.503 35.487C130.563 35.5347 130.607 35.591 130.633 35.656L132.303 39.894C132.364 40.05 132.411 40.206 132.446 40.362C132.481 40.518 132.513 40.6718 132.544 40.8235C132.578 40.6718 132.615 40.518 132.654 40.362C132.693 40.206 132.743 40.05 132.804 39.894L134.494 35.656C134.52 35.5867 134.561 35.5303 134.617 35.487C134.678 35.4393 134.751 35.4155 134.838 35.4155H135.742L133.057 42H132.011L129.326 35.4155ZM139.787 35.4155V42H138.63V35.4155H139.787ZM140.047 33.3485C140.047 33.4612 140.024 33.5673 139.976 33.667C139.933 33.7623 139.872 33.849 139.794 33.927C139.72 34.0007 139.634 34.0592 139.534 34.1025C139.434 34.1458 139.328 34.1675 139.215 34.1675C139.103 34.1675 138.997 34.1458 138.897 34.1025C138.802 34.0592 138.715 34.0007 138.637 33.927C138.563 33.849 138.505 33.7623 138.461 33.667C138.418 33.5673 138.396 33.4612 138.396 33.3485C138.396 33.2358 138.418 33.1297 138.461 33.03C138.505 32.926 138.563 32.8372 138.637 32.7635C138.715 32.6855 138.802 32.6248 138.897 32.5815C138.997 32.5382 139.103 32.5165 139.215 32.5165C139.328 32.5165 139.434 32.5382 139.534 32.5815C139.634 32.6248 139.72 32.6855 139.794 32.7635C139.872 32.8372 139.933 32.926 139.976 33.03C140.024 33.1297 140.047 33.2358 140.047 33.3485ZM148.008 36.5855C147.973 36.6332 147.939 36.67 147.904 36.696C147.869 36.722 147.82 36.735 147.755 36.735C147.69 36.735 147.618 36.709 147.54 36.657C147.466 36.6007 147.371 36.54 147.254 36.475C147.137 36.41 146.994 36.3515 146.825 36.2995C146.66 36.2432 146.457 36.215 146.214 36.215C145.893 36.215 145.61 36.2735 145.363 36.3905C145.116 36.5032 144.908 36.6678 144.739 36.8845C144.574 37.1012 144.448 37.3633 144.362 37.671C144.279 37.9787 144.238 38.3232 144.238 38.7045C144.238 39.1032 144.284 39.4585 144.375 39.7705C144.466 40.0782 144.593 40.3382 144.758 40.5505C144.923 40.7585 145.122 40.9188 145.356 41.0315C145.594 41.1398 145.861 41.194 146.156 41.194C146.437 41.194 146.669 41.1615 146.851 41.0965C147.033 41.0272 147.185 40.9513 147.306 40.869C147.427 40.7867 147.527 40.713 147.605 40.648C147.683 40.5787 147.761 40.544 147.839 40.544C147.939 40.544 148.012 40.5808 148.06 40.6545L148.385 41.077C148.099 41.428 147.742 41.6858 147.313 41.8505C146.884 42.0108 146.431 42.091 145.954 42.091C145.542 42.091 145.159 42.0152 144.804 41.8635C144.453 41.7118 144.147 41.493 143.887 41.207C143.627 40.9167 143.421 40.5613 143.27 40.141C143.122 39.7207 143.049 39.2418 143.049 38.7045C143.049 38.2148 143.116 37.762 143.25 37.346C143.389 36.93 143.588 36.5725 143.848 36.2735C144.112 35.9702 144.437 35.734 144.823 35.565C145.209 35.396 145.651 35.3115 146.149 35.3115C146.608 35.3115 147.016 35.3873 147.371 35.539C147.726 35.6863 148.041 35.8965 148.314 36.1695L148.008 36.5855ZM153.882 35.3115C154.276 35.3115 154.64 35.3787 154.974 35.513C155.307 35.643 155.595 35.8337 155.838 36.085C156.081 36.332 156.269 36.6397 156.404 37.008C156.542 37.372 156.612 37.788 156.612 38.256C156.612 38.438 156.592 38.5593 156.553 38.62C156.514 38.6807 156.44 38.711 156.332 38.711H151.951C151.96 39.127 152.016 39.4888 152.12 39.7965C152.224 40.1042 152.367 40.362 152.549 40.57C152.731 40.7737 152.948 40.9275 153.199 41.0315C153.45 41.1312 153.732 41.181 154.044 41.181C154.334 41.181 154.584 41.1485 154.792 41.0835C155.004 41.0142 155.186 40.9405 155.338 40.8625C155.489 40.7845 155.615 40.713 155.715 40.648C155.819 40.5787 155.907 40.544 155.981 40.544C156.076 40.544 156.15 40.5808 156.202 40.6545L156.527 41.077C156.384 41.2503 156.213 41.402 156.014 41.532C155.814 41.6577 155.6 41.7617 155.37 41.844C155.145 41.9263 154.911 41.987 154.668 42.026C154.425 42.0693 154.185 42.091 153.947 42.091C153.492 42.091 153.071 42.0152 152.686 41.8635C152.304 41.7075 151.973 41.4822 151.691 41.1875C151.414 40.8885 151.197 40.5202 151.041 40.0825C150.885 39.6448 150.807 39.1422 150.807 38.5745C150.807 38.1152 150.876 37.6862 151.015 37.2875C151.158 36.8888 151.362 36.5443 151.626 36.254C151.89 35.9593 152.213 35.7297 152.595 35.565C152.976 35.396 153.405 35.3115 153.882 35.3115ZM153.908 36.163C153.349 36.163 152.909 36.3255 152.588 36.6505C152.267 36.9712 152.068 37.4175 151.99 37.9895H155.572C155.572 37.7208 155.535 37.476 155.461 37.255C155.387 37.0297 155.279 36.8368 155.136 36.6765C154.993 36.5118 154.818 36.3862 154.61 36.2995C154.406 36.2085 154.172 36.163 153.908 36.163ZM163.552 36.501C163.5 36.5963 163.42 36.644 163.312 36.644C163.247 36.644 163.173 36.6202 163.091 36.5725C163.009 36.5248 162.907 36.4728 162.785 36.4165C162.668 36.3558 162.528 36.3017 162.363 36.254C162.198 36.202 162.003 36.176 161.778 36.176C161.583 36.176 161.407 36.202 161.251 36.254C161.095 36.3017 160.961 36.3688 160.848 36.4555C160.74 36.5422 160.656 36.644 160.595 36.761C160.539 36.8737 160.51 36.9972 160.51 37.1315C160.51 37.3005 160.558 37.4413 160.653 37.554C160.753 37.6667 160.883 37.7642 161.043 37.8465C161.204 37.9288 161.386 38.0025 161.589 38.0675C161.793 38.1282 162.001 38.1953 162.213 38.269C162.43 38.3383 162.64 38.4163 162.844 38.503C163.048 38.5897 163.23 38.698 163.39 38.828C163.55 38.958 163.678 39.1183 163.773 39.309C163.873 39.4953 163.923 39.7207 163.923 39.985C163.923 40.2883 163.869 40.57 163.76 40.83C163.652 41.0857 163.492 41.3088 163.279 41.4995C163.067 41.6858 162.807 41.8332 162.499 41.9415C162.192 42.0498 161.836 42.104 161.433 42.104C160.974 42.104 160.558 42.0303 160.185 41.883C159.813 41.7313 159.496 41.5385 159.236 41.3045L159.509 40.8625C159.544 40.8062 159.585 40.7628 159.633 40.7325C159.681 40.7022 159.743 40.687 159.821 40.687C159.899 40.687 159.982 40.7173 160.068 40.778C160.155 40.8387 160.259 40.9058 160.38 40.9795C160.506 41.0532 160.656 41.1203 160.829 41.181C161.007 41.2417 161.228 41.272 161.492 41.272C161.717 41.272 161.914 41.2438 162.083 41.1875C162.252 41.1268 162.393 41.0467 162.506 40.947C162.619 40.8473 162.701 40.7325 162.753 40.6025C162.809 40.4725 162.837 40.3338 162.837 40.1865C162.837 40.0045 162.788 39.855 162.688 39.738C162.593 39.6167 162.465 39.5148 162.304 39.4325C162.144 39.3458 161.96 39.2722 161.752 39.2115C161.548 39.1465 161.338 39.0793 161.121 39.01C160.909 38.9407 160.699 38.8627 160.491 38.776C160.287 38.685 160.105 38.5723 159.945 38.438C159.785 38.3037 159.655 38.139 159.555 37.944C159.46 37.7447 159.412 37.5042 159.412 37.2225C159.412 36.9712 159.464 36.7307 159.568 36.501C159.672 36.267 159.824 36.0633 160.023 35.89C160.222 35.7123 160.467 35.5715 160.757 35.4675C161.048 35.3635 161.379 35.3115 161.752 35.3115C162.185 35.3115 162.573 35.3808 162.915 35.5195C163.262 35.6538 163.561 35.8402 163.812 36.0785L163.552 36.501Z" fill="#8D8D8D"/>
<path d="M40 22.0986C40 31.9853 31.7173 40 21.5 40C11.2827 40 3 31.9853 3 22.0986C3 16.9272 5.26615 12.268 8.88994 9" stroke="#2DBC9A" stroke-width="4.5"/>
<path d="M17.3818 5.91605C23.3923 4.30555 29.5142 7.6629 31.0554 13.4149C32.5966 19.1669 28.9736 25.1354 22.9631 26.7459C19.8192 27.5883 16.6449 27.0715 14.1115 25.5638" stroke="#2DBC9A" stroke-width="4.5"/>
</svg>
