<svg xmlns="http://www.w3.org/2000/svg" viewBox="0 0 100 80.65"><defs><style>.cls-1,.cls-2{fill:#fff;}.cls-1{fill-rule:evenodd;}</style></defs><title>Recurso 4</title><g id="Capa_2" data-name="Capa 2"><g id="Layer_1" data-name="Layer 1"><path class="cls-1" d="M69.4,9.5A25.23,25.23,0,0,0,48.05,0a12.36,12.36,0,0,0-9,4c-3.64,4-3.57,7.94-.58,12.64,1.89,3,4.79,4.74,7.85,6.25s6.44,3,9.63,4.61a16.32,16.32,0,0,1,6.15,5c.44.61.82,1.26,1.41,2.18.19-.69-.65-8-3.22-10.55-2.37-2.34-5.38-3.63-8.35-5-3.18-1.47-6.56-2.64-9-5.29-2.12-2.28-3-5.43-1-7.81A7.77,7.77,0,0,1,44.68,4a13.46,13.46,0,0,1,7.62-.52C61.41,4.92,67.74,10,70.7,18.64a21.22,21.22,0,0,1-2.89,19.75c-2.22,3.16-7.78,9.74-8,10.31a12,12,0,0,0,2.63-.91,29.43,29.43,0,0,0,4.26-3.17,25.26,25.26,0,0,0,8.37-19.57A24.1,24.1,0,0,0,69.4,9.5Z"/><path class="cls-1" d="M58.42,32.5c-3.39-3.14-7.68-4.75-11.78-6.65-3.52-1.62-7-3.26-9.54-6.32-.34-.4-.67-.81-1-1.22-.14,0,1.58,8,4.55,9.79s6.36,3.35,9.57,5c2.23,1.13,4.54,2.16,6.17,4.15,1.9,2.32,3.18,6,.3,8.82a8.08,8.08,0,0,1-5.06,2.15,22.63,22.63,0,0,1-14.76-3.73c-6-3.95-9.16-9.73-9.9-16.9a21.24,21.24,0,0,1,3.46-14.14c1.22-1.89,3-3.38,4.44-5.17,1.1-1.41,2-3,2.92-4.53a12.13,12.13,0,0,0-3.61,1.59,24.51,24.51,0,0,0-9.06,13.16,24.32,24.32,0,0,0,3.22,20.9A25.44,25.44,0,0,0,44.89,50.48c5.48,1.11,10.76.72,14.93-3.7a8.66,8.66,0,0,0,2.51-6.05A10.77,10.77,0,0,0,58.42,32.5Z"/><path class="cls-2" d="M0,68.16l1.86-2.22a6.18,6.18,0,0,0,3.91,1.44c.89,0,1.38-.31,1.38-.82v0c0-.5-.4-.77-2-1.15C2.55,64.78.57,64.06.57,61.58v0c0-2.24,1.77-3.86,4.66-3.86a7.57,7.57,0,0,1,5,1.6L8.52,61.65a6.06,6.06,0,0,0-3.37-1.19c-.81,0-1.21.35-1.21.78v0c0,.55.42.79,2.09,1.17,2.77.61,4.49,1.5,4.49,3.76v0c0,2.46-1.94,3.93-4.87,3.93A8.4,8.4,0,0,1,0,68.16Z"/><path class="cls-2" d="M11.73,64v0a6.31,6.31,0,0,1,6.51-6.26,6.25,6.25,0,0,1,6.47,6.23v0a6.32,6.32,0,0,1-6.51,6.27A6.25,6.25,0,0,1,11.73,64Zm9.57,0v0a3.13,3.13,0,0,0-3.1-3.25,3.08,3.08,0,0,0-3,3.22v0a3.14,3.14,0,0,0,3.09,3.26A3.07,3.07,0,0,0,21.3,64Z"/><path class="cls-2" d="M26.45,57.9h3.34V67h5.84V70H26.45Z"/><path class="cls-2" d="M37.12,57.9h3.36V70H37.12Z"/><path class="cls-2" d="M42.69,57.9h4.65c4.3,0,6.8,2.48,6.8,6v0c0,3.48-2.53,6.06-6.87,6.06H42.69ZM47.39,67c2,0,3.32-1.1,3.32-3v0c0-1.93-1.33-3-3.32-3H46V67Z"/><path class="cls-2" d="M59.17,57.81h3.22L67.52,70H63.94l-.88-2.15H58.41L57.55,70H54Zm2.92,7.39-1.34-3.43L59.39,65.2Z"/><path class="cls-2" d="M68.69,57.9h5.7a5.24,5.24,0,0,1,3.92,1.31A3.69,3.69,0,0,1,79.38,62v0a3.81,3.81,0,0,1-2.48,3.7L79.78,70H75.92L73.49,66.3H72V70H68.69Zm5.54,5.78c1.14,0,1.79-.55,1.79-1.43v0c0-.95-.69-1.43-1.8-1.43H72v2.89Z"/><path class="cls-2" d="M81.14,57.9h3.35V70H81.14Z"/><path class="cls-2" d="M90.87,57.81h3.22L99.22,70H95.64l-.88-2.15H90.11L89.25,70H85.73Zm2.92,7.39-1.34-3.43L91.09,65.2Z"/><path class="cls-2" d="M27.8,76.56h-.61V75.34h.61V75a1.73,1.73,0,0,1,.42-1.27,1.67,1.67,0,0,1,1.21-.41,3.16,3.16,0,0,1,1.05.15v1.23a1.82,1.82,0,0,0-.67-.13c-.34,0-.54.18-.54.57v.2h1.2v1.21H29.29v4H27.8Z"/><path class="cls-2" d="M31.25,78.69v-3.4h1.48v2.93c0,.7.33,1.06.9,1.06s.93-.36.93-1.06V75.29h1.49v5.24H34.56v-.74a1.84,1.84,0,0,1-1.53.84A1.71,1.71,0,0,1,31.25,78.69Z"/><path class="cls-2" d="M37.38,75.29h1.48V76a1.85,1.85,0,0,1,1.54-.84,1.72,1.72,0,0,1,1.78,1.94v3.39H40.69V77.61c0-.7-.33-1.06-.9-1.06s-.93.36-.93,1.06v2.92H37.38Z"/><path class="cls-2" d="M43.21,77.94v0A2.61,2.61,0,0,1,45.8,75.2,2.56,2.56,0,0,1,48.36,78c0,.12,0,.26,0,.39H44.69a1.22,1.22,0,0,0,1.28,1,1.72,1.72,0,0,0,1.27-.54l.85.75a2.77,2.77,0,0,1-4.88-1.73Zm3.7-.44a1.13,1.13,0,0,0-1.11-1.11,1.17,1.17,0,0,0-1.13,1.11Z"/><path class="cls-2" d="M49.46,75.29H51v1.06a1.61,1.61,0,0,1,1.67-1.15v1.55h-.08c-1,0-1.59.6-1.59,1.85v1.93H49.46Z"/><path class="cls-2" d="M53,79v0c0-1.14.87-1.67,2.11-1.67a3.89,3.89,0,0,1,1.28.21v-.09c0-.61-.38-.95-1.12-.95a3.78,3.78,0,0,0-1.45.28l-.37-1.13a4.54,4.54,0,0,1,2-.42,2.43,2.43,0,0,1,1.77.58,2.29,2.29,0,0,1,.57,1.67v3H56.37V80a2,2,0,0,1-1.58.66A1.62,1.62,0,0,1,53,79Zm3.41-.34v-.27a2.39,2.39,0,0,0-.95-.19c-.63,0-1,.25-1,.72v0c0,.4.33.64.81.64C55.93,79.61,56.4,79.22,56.4,78.69Z"/><path class="cls-2" d="M59.16,73.4h1.49v7.13H59.16Z"/><path class="cls-2" d="M61.79,77.94v0a2.6,2.6,0,0,1,2.59-2.72A2.55,2.55,0,0,1,66.93,78c0,.12,0,.26,0,.39H63.27a1.21,1.21,0,0,0,1.28,1,1.74,1.74,0,0,0,1.27-.54l.85.75a2.77,2.77,0,0,1-4.88-1.73Zm3.69-.44a1.11,1.11,0,0,0-1.1-1.11,1.16,1.16,0,0,0-1.13,1.11Z"/><path class="cls-2" d="M67.63,79.84l.63-1a3,3,0,0,0,1.65.63c.43,0,.63-.16.63-.39v0c0-.32-.51-.43-1.09-.61-.73-.21-1.56-.56-1.56-1.57v0a1.71,1.71,0,0,1,1.92-1.66,3.63,3.63,0,0,1,2,.6l-.57,1a3.09,3.09,0,0,0-1.41-.49c-.37,0-.55.16-.55.36v0c0,.29.5.43,1.06.63.74.24,1.59.59,1.59,1.55v0c0,1.16-.87,1.69-2,1.69A3.63,3.63,0,0,1,67.63,79.84Z"/><rect class="cls-2" x="0.55" y="77.38" width="23.65" height="0.65"/><rect class="cls-2" x="76.35" y="77.38" width="23.65" height="0.65"/></g></g></svg>