<svg xmlns="http://www.w3.org/2000/svg" viewBox="0 0 329.17 80.15"><defs><style>.cls-1{fill:#e51e2a;}.cls-1,.cls-2{fill-rule:evenodd;}.cls-2,.cls-4{fill:#134c92;}.cls-3{fill:#2b2123;}</style></defs><title>logo-solidaria-horizontal</title><g id="Capa_2" data-name="Capa 2"><g id="Layer_1" data-name="Layer 1"><path class="cls-1" d="M71.22,14.94C62.53,4.61,51.36-.54,37.68.05A19.41,19.41,0,0,0,23.51,6.4c-5.71,6.36-5.61,12.47-.91,19.86,3,4.68,7.52,7.45,12.33,9.83,5,2.47,10.13,4.76,15.14,7.24a25.62,25.62,0,0,1,9.67,7.85c.68,1,1.29,2,2.22,3.43.29-1.09-1-12.57-5.07-16.58-3.71-3.67-8.45-5.7-13.12-7.86-5-2.31-10.31-4.14-14.2-8.31C26.23,18.28,24.93,13.32,28,9.58a12.13,12.13,0,0,1,4.39-3.27c3.84-1.69,7.93-1.45,12-.82C58.67,7.73,68.61,15.73,73.26,29.3c3.71,10.82,2.13,21.5-4.54,31-3.48,5-12.22,15.3-12.55,16.21,1.74-.58,3.1-.76,4.13-1.43a47,47,0,0,0,6.7-5c8.83-8.32,13.35-18.51,13.16-30.76A37.8,37.8,0,0,0,71.22,14.94Z"/><path class="cls-2" d="M54,51.07c-5.32-4.93-12.07-7.46-18.51-10.44-5.53-2.55-11-5.13-15-9.93l-1.57-1.92c-.21,0,2.48,12.61,7.16,15.38C30.9,47,36,49.43,41.08,52c3.51,1.79,7.14,3.4,9.7,6.53,3,3.65,5,9.41.48,13.87a12.76,12.76,0,0,1-7.95,3.37,35.51,35.51,0,0,1-23.2-5.87C10.63,63.7,5.72,54.61,4.54,43.34A33.49,33.49,0,0,1,10,21.11c1.92-3,4.79-5.29,7-8.11,1.73-2.22,3.08-4.74,4.59-7.12a18.71,18.71,0,0,0-5.67,2.5A38.49,38.49,0,0,0,1.64,29.05C-1.62,40.66-.07,51.79,6.7,61.9a39.94,39.94,0,0,0,26,17.43c8.61,1.74,16.9,1.14,23.46-5.82A13.64,13.64,0,0,0,60.12,64C60.17,58.66,57.7,54.52,54,51.07Z"/><path class="cls-3" d="M95.17,37.75l4.35-5.2a14.5,14.5,0,0,0,9.14,3.39c2.1,0,3.23-.73,3.23-1.94v-.08c0-1.17-.93-1.81-4.76-2.7-6-1.37-10.63-3.06-10.63-8.86v-.08c0-5.24,4.15-9,10.92-9A17.73,17.73,0,0,1,119,17l-3.91,5.52a14.18,14.18,0,0,0-7.9-2.78c-1.89,0-2.82.8-2.82,1.81v.08c0,1.29,1,1.86,4.88,2.74,6.49,1.41,10.52,3.51,10.52,8.79v.08c0,5.76-4.56,9.18-11.41,9.18A19.7,19.7,0,0,1,95.17,37.75Z"/><path class="cls-3" d="M122.6,27.92v-.08c0-8.1,6.53-14.67,15.24-14.67S153,19.66,153,27.76v.08c0,8.1-6.53,14.67-15.23,14.67S122.6,36,122.6,27.92Zm22.41,0v-.08a7.33,7.33,0,0,0-7.25-7.62c-4.28,0-7.14,3.47-7.14,7.54v.08a7.32,7.32,0,0,0,7.22,7.61C142.15,35.45,145,32,145,27.92Z"/><path class="cls-3" d="M157.06,13.73h7.81V35.09h13.66v6.85H157.06Z"/><path class="cls-3" d="M182,13.73h7.85V41.94H182Z"/><path class="cls-3" d="M195.05,13.73h10.88c10.07,0,15.92,5.81,15.92,14v.08c0,8.14-5.93,14.18-16.08,14.18H195.05Zm11,21.28c4.68,0,7.78-2.58,7.78-7.13V27.8c0-4.52-3.1-7.13-7.78-7.13h-3.18V35Z"/><path class="cls-3" d="M233.61,13.53h7.54l12,28.41h-8.39l-2.05-5H231.84l-2,5H221.6Zm6.85,17.29-3.14-8-3.18,8Z"/><path class="cls-3" d="M255.89,13.73h13.34c4.31,0,7.29,1.13,9.19,3.07a8.74,8.74,0,0,1,2.5,6.57v.08a8.92,8.92,0,0,1-5.81,8.66l6.73,9.83h-9l-5.68-8.54h-3.43v8.54h-7.82Zm13,13.54c2.66,0,4.19-1.29,4.19-3.34v-.08c0-2.22-1.61-3.35-4.23-3.35h-5.12v6.77Z"/><path class="cls-3" d="M285,13.73h7.85V41.94H285Z"/><path class="cls-3" d="M307.79,13.53h7.54l12,28.41H319l-2.05-5H306l-2,5h-8.22Zm6.85,17.29-3.14-8-3.18,8Z"/><path class="cls-4" d="M160.23,57.42h-1.44V54.56h1.44v-.78a4,4,0,0,1,1-3,3.82,3.82,0,0,1,2.82-1,7.62,7.62,0,0,1,2.47.34v2.88a4.53,4.53,0,0,0-1.58-.3c-.8,0-1.26.42-1.26,1.33v.48h2.81v2.84h-2.76v9.29h-3.48Z"/><path class="cls-4" d="M168.28,62.38V54.44h3.48v6.85c0,1.64.78,2.49,2.1,2.49s2.18-.85,2.18-2.49V54.44h3.48V66.71H176V65a4.34,4.34,0,0,1-3.59,2C169.81,66.94,168.28,65.2,168.28,62.38Z"/><path class="cls-4" d="M182.63,54.44h3.47v1.74a4.33,4.33,0,0,1,3.6-2c2.63,0,4.16,1.73,4.16,4.55v7.94h-3.48V59.87c0-1.65-.78-2.5-2.1-2.5s-2.18.85-2.18,2.5v6.84h-3.47Z"/><path class="cls-4" d="M196.28,60.65v0a6.11,6.11,0,0,1,6.07-6.38c4.09,0,6,3.18,6,6.65,0,.28,0,.6,0,.92h-8.53a2.84,2.84,0,0,0,3,2.4,4,4,0,0,0,3-1.26l2,1.76a6.48,6.48,0,0,1-11.42-4Zm8.65-1A2.62,2.62,0,0,0,202.35,57c-1.45,0-2.38,1-2.66,2.61Z"/><path class="cls-4" d="M210.9,54.44h3.48v2.48a3.77,3.77,0,0,1,3.91-2.7v3.63h-.18c-2.31,0-3.73,1.4-3.73,4.33v4.53H210.9Z"/><path class="cls-4" d="M219.16,63.18v0c0-2.68,2-3.91,4.94-3.91a8.66,8.66,0,0,1,3,.5v-.21c0-1.44-.89-2.24-2.63-2.24a9.06,9.06,0,0,0-3.39.66l-.87-2.65a10.9,10.9,0,0,1,4.76-1,5.65,5.65,0,0,1,4.14,1.37,5.32,5.32,0,0,1,1.33,3.91v7.12h-3.36V65.38a4.73,4.73,0,0,1-3.71,1.56C221.06,66.94,219.16,65.61,219.16,63.18Zm8-.8v-.61a5.35,5.35,0,0,0-2.22-.46c-1.49,0-2.41.59-2.41,1.69v0c0,.94.78,1.48,1.9,1.48C226.05,64.53,227.15,63.64,227.15,62.38Z"/><path class="cls-4" d="M233.6,50h3.48v16.7H233.6Z"/><path class="cls-4" d="M239.75,60.65v0a6.1,6.1,0,0,1,6.06-6.38c4.1,0,6,3.18,6,6.65,0,.28,0,.6,0,.92h-8.53a2.84,2.84,0,0,0,3,2.4,4,4,0,0,0,3-1.26l2,1.76a6.48,6.48,0,0,1-11.42-4Zm8.65-1c-.21-1.56-1.12-2.61-2.59-2.61s-2.38,1-2.65,2.61Z"/><path class="cls-4" d="M253.41,65.08l1.49-2.28a6.91,6.91,0,0,0,3.86,1.46c1,0,1.47-.37,1.47-.92v0c0-.76-1.19-1-2.54-1.42-1.72-.5-3.66-1.3-3.66-3.68v-.05c0-2.49,2-3.89,4.48-3.89a8.52,8.52,0,0,1,4.58,1.42l-1.33,2.4a7.25,7.25,0,0,0-3.32-1.14c-.84,0-1.28.36-1.28.84v0c0,.69,1.17,1,2.49,1.46,1.72.58,3.71,1.4,3.71,3.64v0c0,2.72-2,4-4.69,4A8.54,8.54,0,0,1,253.41,65.08Z"/><rect class="cls-4" x="96.45" y="59.32" width="55.34" height="1.52"/><rect class="cls-4" x="273.83" y="59.32" width="55.34" height="1.52"/></g></g></svg>